<?xml version="1.0" encoding="UTF-8" standalone="no"?><!-- Generator: Gravit.io --><svg xmlns="http://www.w3.org/2000/svg" xmlns:xlink="http://www.w3.org/1999/xlink" style="isolation:isolate" viewBox="565.751 630.502 821.973 223.92" width="821.973pt" height="223.92pt"><defs><clipPath id="_clipPath_DOeW5U2ExEwbrvCsEXGT5YWxiQm9W0CH"><rect x="565.751" y="630.502" width="821.973" height="223.92"/></clipPath></defs><g clip-path="url(#_clipPath_DOeW5U2ExEwbrvCsEXGT5YWxiQm9W0CH)"><path d=" M 836.943 854.422 L 836.943 854.422 Q 812.063 854.422 799.001 840.272 L 799.001 840.272 L 799.001 840.272 Q 785.939 826.121 785.939 799.686 L 785.939 799.686 L 785.939 685.238 L 785.939 685.238 Q 785.939 658.803 799.001 644.653 L 799.001 644.653 L 799.001 644.653 Q 812.063 630.502 836.943 630.502 L 836.943 630.502 L 836.943 630.502 Q 861.823 630.502 874.885 644.653 L 874.885 644.653 L 874.885 644.653 Q 887.947 658.803 887.947 685.238 L 887.947 685.238 L 887.947 703.898 L 855.603 703.898 L 855.603 683.061 L 855.603 683.061 Q 855.603 661.602 837.876 661.602 L 837.876 661.602 L 837.876 661.602 Q 820.149 661.602 820.149 683.061 L 820.149 683.061 L 820.149 802.174 L 820.149 802.174 Q 820.149 823.322 837.876 823.322 L 837.876 823.322 L 837.876 823.322 Q 855.603 823.322 855.603 802.174 L 855.603 802.174 L 855.603 759.567 L 838.498 759.567 L 838.498 728.467 L 887.947 728.467 L 887.947 799.686 L 887.947 799.686 Q 887.947 826.121 874.885 840.272 L 874.885 840.272 L 874.885 840.272 Q 861.823 854.422 836.943 854.422 L 836.943 854.422 L 836.943 854.422 Z  M 959.788 854.422 L 959.788 854.422 Q 934.908 854.422 921.846 840.272 L 921.846 840.272 L 921.846 840.272 Q 908.784 826.121 908.784 799.686 L 908.784 799.686 L 908.784 633.612 L 942.994 633.612 L 942.994 802.174 L 942.994 802.174 Q 942.994 813.37 947.504 818.346 L 947.504 818.346 L 947.504 818.346 Q 952.013 823.322 960.41 823.322 L 960.41 823.322 L 960.41 823.322 Q 968.807 823.322 973.317 818.346 L 973.317 818.346 L 973.317 818.346 Q 977.826 813.37 977.826 802.174 L 977.826 802.174 L 977.826 633.612 L 1010.792 633.612 L 1010.792 799.686 L 1010.792 799.686 Q 1010.792 826.121 997.73 840.272 L 997.73 840.272 L 997.73 840.272 Q 984.668 854.422 959.788 854.422 L 959.788 854.422 L 959.788 854.422 Z  M 1025.409 851.312 L 1060.863 633.612 L 1107.202 633.612 L 1142.656 851.312 L 1108.446 851.312 L 1102.226 808.083 L 1102.226 808.705 L 1063.351 808.705 L 1057.131 851.312 L 1025.409 851.312 L 1025.409 851.312 Z  M 1067.394 779.16 L 1098.183 779.16 L 1082.944 671.554 L 1082.322 671.554 L 1067.394 779.16 L 1067.394 779.16 Z  M 1159.139 851.312 L 1159.139 633.612 L 1209.832 633.612 L 1209.832 633.612 Q 1236.267 633.612 1248.396 645.897 L 1248.396 645.897 L 1248.396 645.897 Q 1260.525 658.181 1260.525 683.683 L 1260.525 683.683 L 1260.525 697.056 L 1260.525 697.056 Q 1260.525 730.955 1238.133 739.974 L 1238.133 739.974 L 1238.133 740.596 L 1238.133 740.596 Q 1250.573 744.328 1255.704 755.835 L 1255.704 755.835 L 1255.704 755.835 Q 1260.836 767.342 1260.836 786.624 L 1260.836 786.624 L 1260.836 824.877 L 1260.836 824.877 Q 1260.836 834.207 1261.458 839.961 L 1261.458 839.961 L 1261.458 839.961 Q 1262.08 845.714 1264.568 851.312 L 1264.568 851.312 L 1229.736 851.312 L 1229.736 851.312 Q 1227.87 846.025 1227.248 841.36 L 1227.248 841.36 L 1227.248 841.36 Q 1226.626 836.695 1226.626 824.566 L 1226.626 824.566 L 1226.626 784.758 L 1226.626 784.758 Q 1226.626 769.83 1221.806 763.921 L 1221.806 763.921 L 1221.806 763.921 Q 1216.985 758.012 1205.167 758.012 L 1205.167 758.012 L 1193.349 758.012 L 1193.349 851.312 L 1159.139 851.312 L 1159.139 851.312 Z  M 1193.349 726.912 L 1205.789 726.912 L 1205.789 726.912 Q 1216.052 726.912 1221.183 721.625 L 1221.183 721.625 L 1221.183 721.625 Q 1226.315 716.338 1226.315 703.898 L 1226.315 703.898 L 1226.315 687.104 L 1226.315 687.104 Q 1226.315 675.286 1222.116 669.999 L 1222.116 669.999 L 1222.116 669.999 Q 1217.918 664.712 1208.899 664.712 L 1208.899 664.712 L 1193.349 664.712 L 1193.349 726.912 L 1193.349 726.912 Z  M 1284.472 851.312 L 1284.472 633.612 L 1336.72 633.612 L 1336.72 633.612 Q 1362.222 633.612 1374.973 647.296 L 1374.973 647.296 L 1374.973 647.296 Q 1387.724 660.98 1387.724 687.415 L 1387.724 687.415 L 1387.724 797.509 L 1387.724 797.509 Q 1387.724 823.944 1374.973 837.628 L 1374.973 837.628 L 1374.973 837.628 Q 1362.222 851.312 1336.72 851.312 L 1336.72 851.312 L 1284.472 851.312 L 1284.472 851.312 Z  M 1318.682 820.212 L 1336.098 820.212 L 1336.098 820.212 Q 1344.495 820.212 1349.005 815.236 L 1349.005 815.236 L 1349.005 815.236 Q 1353.514 810.26 1353.514 799.064 L 1353.514 799.064 L 1353.514 685.86 L 1353.514 685.86 Q 1353.514 674.664 1349.005 669.688 L 1349.005 669.688 L 1349.005 669.688 Q 1344.495 664.712 1336.098 664.712 L 1336.098 664.712 L 1318.682 664.712 L 1318.682 820.212 L 1318.682 820.212 Z " fill="rgb(210,71,180)"/><path d=" M 565.751 851.312 L 565.751 633.612 L 656.252 633.612 L 656.252 664.712 L 599.961 664.712 L 599.961 725.357 L 644.123 725.357 L 644.123 756.457 L 599.961 756.457 L 599.961 851.312 L 565.751 851.312 L 565.751 851.312 Z  M 717.208 854.422 L 717.208 854.422 Q 692.328 854.422 679.577 840.272 L 679.577 840.272 L 679.577 840.272 Q 666.826 826.121 666.826 799.686 L 666.826 799.686 L 666.826 787.246 L 699.17 787.246 L 699.17 802.174 L 699.17 802.174 Q 699.17 823.322 716.897 823.322 L 716.897 823.322 L 716.897 823.322 Q 725.605 823.322 730.115 818.191 L 730.115 818.191 L 730.115 818.191 Q 734.624 813.059 734.624 801.552 L 734.624 801.552 L 734.624 801.552 Q 734.624 787.868 728.404 777.45 L 728.404 777.45 L 728.404 777.45 Q 722.184 767.031 705.39 752.414 L 705.39 752.414 L 705.39 752.414 Q 684.242 733.754 675.845 718.671 L 675.845 718.671 L 675.845 718.671 Q 667.448 703.587 667.448 684.616 L 667.448 684.616 L 667.448 684.616 Q 667.448 658.803 680.51 644.653 L 680.51 644.653 L 680.51 644.653 Q 693.572 630.502 718.452 630.502 L 718.452 630.502 L 718.452 630.502 Q 743.021 630.502 755.617 644.653 L 755.617 644.653 L 755.617 644.653 Q 768.212 658.803 768.212 685.238 L 768.212 685.238 L 768.212 694.257 L 735.868 694.257 L 735.868 683.061 L 735.868 683.061 Q 735.868 671.865 731.514 666.734 L 731.514 666.734 L 731.514 666.734 Q 727.16 661.602 718.763 661.602 L 718.763 661.602 L 718.763 661.602 Q 701.658 661.602 701.658 682.439 L 701.658 682.439 L 701.658 682.439 Q 701.658 694.257 708.034 704.52 L 708.034 704.52 L 708.034 704.52 Q 714.409 714.783 731.203 729.4 L 731.203 729.4 L 731.203 729.4 Q 752.662 748.06 760.748 763.299 L 760.748 763.299 L 760.748 763.299 Q 768.834 778.538 768.834 799.064 L 768.834 799.064 L 768.834 799.064 Q 768.834 825.81 755.617 840.116 L 755.617 840.116 L 755.617 840.116 Q 742.399 854.422 717.208 854.422 L 717.208 854.422 L 717.208 854.422 Z " fill="rgb(136,111,131)"/></g></svg>